<svg style="position: absolute; width: 0; height: 0; overflow: hidden;" version="1.1" xmlns="http://www.w3.org/2000/svg" xmlns:xlink="http://www.w3.org/1999/xlink">
<defs>
<symbol id="icon-heart-full" viewBox="0 0 32 32">
<title>heart-full</title>
<path d="M16.042 8.345c0 0-2-4.262-6.5-4.262-4.917 0-7.5 4.167-7.5 8.333 0 6.917 14 15.5 14 15.5s13.916-8.5 13.916-15.5c0-4.25-2.666-8.333-7.416-8.333s-6.5 4.262-6.5 4.262z"></path>
</symbol>
<symbol id="icon-presentation" viewBox="0 0 31 32">
<title>presentation</title>
<path d="M0.5 3c-0.276 0-0.5 0.224-0.5 0.5v17c0 0.827 0.673 1.5 1.5 1.5h28c0.827 0 1.5-0.673 1.5-1.5v-17c0-0.276-0.224-0.5-0.5-0.5s-0.5 0.224-0.5 0.5v17c0 0.276-0.224 0.5-0.5 0.5h-28c-0.276 0-0.5-0.224-0.5-0.5v-17c0-0.276-0.224-0.5-0.5-0.5zM32.5 0h-34c-0.276 0-0.5 0.224-0.5 0.5s0.224 0.5 0.5 0.5h34c0.276 0 0.5-0.224 0.5-0.5s-0.224-0.5-0.5-0.5zM11.854 8.146c-0.183-0.183-0.475-0.196-0.674-0.031l-6 5c-0.212 0.177-0.241 0.492-0.064 0.705 0.177 0.212 0.491 0.241 0.705 0.064l5.649-4.708 5.677 5.677c0.097 0.098 0.225 0.147 0.353 0.147s0.256-0.049 0.354-0.146l7.146-7.147v3.793c0 0.276 0.224 0.5 0.5 0.5s0.5-0.224 0.5-0.5v-5c0-0.065-0.013-0.13-0.038-0.191-0.051-0.122-0.148-0.22-0.271-0.271-0.061-0.025-0.126-0.038-0.191-0.038h-5c-0.276 0-0.5 0.224-0.5 0.5s0.224 0.5 0.5 0.5h3.793l-6.793 6.793-5.646-5.647zM8.057 31.732c0.128 0.245 0.43 0.339 0.675 0.211l6.768-3.545 6.768 3.545c0.074 0.039 0.153 0.057 0.232 0.057 0.18 0 0.354-0.098 0.443-0.268 0.128-0.245 0.034-0.547-0.211-0.675l-6.893-3.61c0.098-0.091 0.161-0.219 0.161-0.364v-2.583c0-0.276-0.224-0.5-0.5-0.5s-0.5 0.224-0.5 0.5v2.583c0 0.144 0.063 0.272 0.161 0.363l-6.893 3.61c-0.245 0.129-0.339 0.431-0.211 0.676z"></path>
</symbol>
<symbol id="icon-expand" viewBox="0 0 32 32">
<title>expand</title>
<path d="M32 30.5v-29c0-0.827-0.673-1.5-1.5-1.5h-29c-0.827 0-1.5 0.673-1.5 1.5v9c0 0.276 0.224 0.5 0.5 0.5s0.5-0.224 0.5-0.5v-9c0-0.276 0.225-0.5 0.5-0.5h29c0.275 0 0.5 0.224 0.5 0.5v29c0 0.276-0.225 0.5-0.5 0.5h-9c-0.276 0-0.5 0.224-0.5 0.5s0.224 0.5 0.5 0.5h9c0.827 0 1.5-0.673 1.5-1.5zM1.5 13c-0.827 0-1.5 0.673-1.5 1.5v16c0 0.827 0.673 1.5 1.5 1.5h16c0.827 0 1.5-0.673 1.5-1.5v-16.793l7-7v6.793c0 0.276 0.224 0.5 0.5 0.5s0.5-0.224 0.5-0.5v-8c0-0.276-0.224-0.5-0.5-0.5h-8c-0.276 0-0.5 0.224-0.5 0.5s0.224 0.5 0.5 0.5h6.792l-7 7h-16.792zM18 30.5c0 0.276-0.225 0.5-0.5 0.5h-16c-0.275 0-0.5-0.224-0.5-0.5v-16c0-0.276 0.225-0.5 0.5-0.5h16.5v16.5z"></path>
</symbol>
<symbol id="icon-lock" viewBox="0 0 28 32">
<title>lock</title>
<path d="M14 0c-5.514 0-10 4.486-10 10v3h-1.5c-1.378 0-2.5 1.122-2.5 2.5v14c0 1.378 1.122 2.5 2.5 2.5h23c1.378 0 2.5-1.122 2.5-2.5v-14c0-1.378-1.122-2.5-2.5-2.5h-1.5v-3c0-5.514-4.486-10-10-10zM5 10c0-4.962 4.038-9 9-9s9 4.038 9 9v3h-3v-3c0-3.309-2.691-6-6-6s-6 2.691-6 6v3h-3v-3zM19 13h-10v-3c0-2.757 2.243-5 5-5s5 2.243 5 5v3zM12.293 21l-5 5h-4.586l5-5h4.586zM18.293 21l-5 5h-4.586l5-5h4.586zM24.293 21l-5 5h-4.586l5-5h4.586zM27 21v5h-6.293l5-5h1.293zM1.293 26h-0.293v-5h5.293l-5 5zM25.5 31h-23c-0.827 0-1.5-0.673-1.5-1.5v-2.5h26v2.5c0 0.827-0.673 1.5-1.5 1.5zM27 15.5v4.5h-26v-4.5c0-0.827 0.673-1.5 1.5-1.5h23c0.827 0 1.5 0.673 1.5 1.5z"></path>
</symbol>
<symbol id="icon-trophy" viewBox="0 0 34 32">
<title>trophy</title>
<path d="M25.5 1c0.276 0 0.5-0.224 0.5-0.5s-0.224-0.5-0.5-0.5h-17c-0.276 0-0.5 0.224-0.5 0.5s0.224 0.5 0.5 0.5h17zM25.5 2h-19c-3.283 0-4.813 1.166-5.519 2.144-0.864 1.2-1.026 2.803-0.456 4.514 0.882 2.646 3.846 5.825 5.668 7.237 0.092 0.071 0.2 0.105 0.307 0.105 0.149 0 0.297-0.066 0.396-0.194 0.169-0.218 0.129-0.532-0.089-0.702-1.674-1.296-4.525-4.342-5.332-6.763-0.467-1.397-0.354-2.68 0.318-3.612 0.815-1.131 2.442-1.729 4.707-1.729h1.5v9.5c0 6.726 6.673 10.601 8.036 11.322-0.021 0.056-0.036 0.115-0.036 0.178v2.5c0 0.276 0.224 0.5 0.5 0.5s0.5-0.224 0.5-0.5v-2.5c0-0.058-0.015-0.112-0.033-0.164 1.514-0.712 9.033-4.586 9.033-11.336v-9.5h1.5c2.265 0 3.892 0.598 4.707 1.729 0.672 0.932 0.785 2.215 0.318 3.613-0.63 1.891-3.769 5.553-5.332 6.763-0.218 0.169-0.258 0.483-0.089 0.702 0.099 0.127 0.247 0.193 0.396 0.193 0.107 0 0.215-0.034 0.307-0.104 1.732-1.342 4.961-5.119 5.668-7.237 0.57-1.711 0.408-3.314-0.456-4.514-0.706-0.979-2.236-2.145-5.519-2.145h-2zM25 12.5c0 6.093-7.152 9.804-8.486 10.443-1.228-0.665-7.514-4.367-7.514-10.443v-9.5h16v9.5zM11 28c-1.141 0-2 0.86-2 2v1.5c0 0.276 0.224 0.5 0.5 0.5h14c0.276 0 0.5-0.224 0.5-0.5v-1.425c0-1.163-0.879-2.075-2-2.075h-11zM23 30.075v0.925h-13v-1c0-0.589 0.411-1 1-1h11c0.57 0 1 0.462 1 1.075z"></path>
</symbol>
<symbol id="icon-key" viewBox="0 0 32 32">
<title>key</title>
<path d="M14.683 14.698c0.117 0 0.235-0.041 0.33-0.124l11.317-9.922-0.66-0.752-11.317 9.921c-0.208 0.182-0.229 0.498-0.046 0.706 0.099 0.113 0.237 0.171 0.376 0.171zM10.188 32c6.142 0 9.812-4.83 9.812-9.5 0-1.346-0.322-2.829-0.798-3.792l4.522-2.261c0.169-0.085 0.276-0.258 0.276-0.447v-4h3c0.011 0 0.102-0.006 0.113-0.006 0.666-0.045 0.865-0.257 0.887-0.994v-4h3c0.129 0 0.218 0.014 0.278 0.023 0.121 0.019 0.347 0.054 0.543-0.122 0.202-0.18 0.193-0.408 0.185-0.609-0.002-0.072-0.006-0.167-0.006-0.292v-4.531c0-0.81-0.659-1.469-1.469-1.469h-3.875c-0.354 0-0.698 0.129-0.969 0.364l-13.187 11.56c-0.649-0.13-1.63-0.299-2.313-0.299-5.617 0-10.187 4.57-10.187 10.187s4.57 10.188 10.188 10.188zM10.188 12.625c0.501 0 1.359 0.12 2.354 0.328 0.155 0.034 0.314-0.010 0.432-0.113l13.371-11.722c0.087-0.076 0.198-0.118 0.311-0.118h3.875c0.259 0 0.469 0.21 0.469 0.469v4.531h-3.5c-0.276 0-0.5 0.224-0.5 0.5v4.5h-3.5c-0.276 0-0.5 0.224-0.5 0.5v4.191l-4.724 2.362c-0.131 0.065-0.227 0.186-0.262 0.328s-0.006 0.293 0.080 0.412c0.44 0.607 0.906 2.114 0.906 3.707 0 4.178-3.296 8.5-8.812 8.5-5.066 0-9.188-4.122-9.188-9.188s4.122-9.187 9.188-9.187zM8.5 27c1.93 0 3.5-1.57 3.5-3.5s-1.57-3.5-3.5-3.5-3.5 1.57-3.5 3.5 1.57 3.5 3.5 3.5zM8.5 21c1.378 0 2.5 1.122 2.5 2.5s-1.122 2.5-2.5 2.5-2.5-1.122-2.5-2.5 1.122-2.5 2.5-2.5z"></path>
</symbol>
<symbol id="icon-profile-male" viewBox="0 0 36 32">
<title>profile-male</title>
<path d="M0.5 31.983c0.268 0.067 0.542-0.088 0.612-0.354 1.030-3.843 5.216-4.839 7.718-5.435 0.627-0.149 1.122-0.267 1.444-0.406 2.85-1.237 3.779-3.227 4.057-4.679 0.034-0.175-0.029-0.355-0.165-0.473-1.484-1.281-2.736-3.204-3.526-5.416-0.022-0.063-0.057-0.121-0.103-0.171-1.045-1.136-1.645-2.337-1.645-3.294 0-0.559 0.211-0.934 0.686-1.217 0.145-0.087 0.236-0.24 0.243-0.408 0.221-5.094 3.849-9.104 8.299-9.13 0.005 0 0.102 0.007 0.107 0.007 4.472 0.062 8.077 4.158 8.206 9.324 0.004 0.143 0.068 0.277 0.178 0.369 0.313 0.265 0.459 0.601 0.459 1.057 0 0.801-0.427 1.786-1.201 2.772-0.037 0.047-0.065 0.101-0.084 0.158-0.8 2.536-2.236 4.775-3.938 6.145-0.144 0.116-0.212 0.302-0.178 0.483 0.278 1.451 1.207 3.44 4.057 4.679 0.337 0.146 0.86 0.26 1.523 0.403 2.477 0.536 6.622 1.435 7.639 5.232 0.060 0.223 0.262 0.37 0.482 0.37 0.043 0 0.086-0.006 0.13-0.017 0.267-0.072 0.425-0.346 0.354-0.613-1.175-4.387-5.871-5.404-8.393-5.95-0.585-0.127-1.090-0.236-1.336-0.344-1.86-0.808-3.006-2.039-3.411-3.665 1.727-1.483 3.172-3.771 3.998-6.337 0.877-1.14 1.359-2.314 1.359-3.317 0-0.669-0.216-1.227-0.644-1.663-0.238-5.604-4.237-10.017-9.2-10.088l-0.149-0.002c-4.873 0.026-8.889 4.323-9.24 9.83-0.626 0.46-0.944 1.105-0.944 1.924 0 1.183 0.669 2.598 1.84 3.896 0.809 2.223 2.063 4.176 3.556 5.543-0.403 1.632-1.55 2.867-3.414 3.676-0.241 0.105-0.721 0.22-1.277 0.352-2.541 0.604-7.269 1.729-8.453 6.147-0.071 0.267 0.087 0.54 0.354 0.612z"></path>
</symbol>
<symbol id="icon-map-pin" viewBox="0 0 24 32">
<title>map-pin</title>
<path d="M12 0c-6.617 0-12 5.394-12 12.022 0 9.927 11.201 19.459 11.678 19.86 0.093 0.079 0.208 0.118 0.322 0.118s0.226-0.038 0.318-0.114c0.477-0.394 11.682-9.762 11.682-19.864 0-6.628-5.383-12.022-12-12.022zM12.002 30.838c-1.841-1.645-11.002-10.259-11.002-18.816 0-6.078 4.935-11.022 11-11.022s11 4.944 11 11.022c0 8.702-9.152 17.193-10.998 18.816zM12 6c-3.309 0-6 2.691-6 6s2.691 6 6 6 6-2.691 6-6-2.691-6-6-6zM12 17c-2.757 0-5-2.243-5-5s2.243-5 5-5 5 2.243 5 5-2.243 5-5 5z"></path>
</symbol>
<symbol id="icon-heart" viewBox="0 0 37 32">
<title>heart</title>
<path d="M27 0c-2.476 0-4.856 0.921-6.704 2.595-0.702 0.635-1.303 1.357-1.796 2.154-0.493-0.797-1.094-1.519-1.796-2.155-1.848-1.673-4.228-2.594-6.704-2.594-5.514 0-10 4.486-10 10 0 3.722 1.158 6.66 3.871 9.825 3.942 4.6 13.919 11.62 14.342 11.917 0.086 0.061 0.187 0.091 0.287 0.091s0.201-0.030 0.287-0.091c0.423-0.297 10.4-7.317 14.343-11.917 2.712-3.165 3.87-6.103 3.87-9.825 0-5.514-4.486-10-10-10zM32.371 19.175c-3.495 4.076-12.18 10.341-13.871 11.545-1.691-1.204-10.376-7.469-13.87-11.545-2.545-2.969-3.63-5.713-3.63-9.175 0-4.963 4.038-9 9-9 2.227 0 4.37 0.829 6.032 2.335 0.838 0.76 1.518 1.656 2.020 2.664 0.17 0.34 0.726 0.34 0.896 0 0.502-1.008 1.182-1.904 2.020-2.663 1.662-1.507 3.805-2.336 6.032-2.336 4.962 0 9 4.037 9 9 0 3.462-1.085 6.206-3.629 9.175z"></path>
</symbol>
<symbol id="icon-global" viewBox="0 0 32 32">
<title>global</title>
<path d="M0.034 16.668c0.354 8.511 7.369 15.332 15.966 15.332s15.612-6.821 15.966-15.332c0.019-0.053 0.034-0.108 0.034-0.168 0-0.036-0.013-0.067-0.020-0.1 0.003-0.134 0.020-0.265 0.020-0.4 0-8.822-7.178-16-16-16s-16 7.178-16 16c0 0.135 0.017 0.266 0.020 0.4-0.007 0.033-0.020 0.064-0.020 0.1 0 0.060 0.015 0.115 0.034 0.168zM24.921 22.742c-1.319-0.552-2.735-0.979-4.215-1.271 0.158-1.453 0.251-2.962 0.28-4.47h4.98c-0.091 2.054-0.456 3.993-1.045 5.741zM26.965 17h3.984c-0.186 2.806-1.138 5.403-2.663 7.579-0.759-0.533-1.577-1.019-2.457-1.44 0.645-1.869 1.042-3.943 1.136-6.139zM12.389 22.286c1.178-0.184 2.387-0.286 3.611-0.286s2.433 0.102 3.61 0.286c-0.694 5.335-2.21 8.714-3.61 8.714s-2.916-3.379-3.611-8.714zM13.908 30.664c-2.751-0.882-5.078-3.471-6.482-6.984 1.246-0.525 2.586-0.935 3.99-1.217 0.459 3.496 1.298 6.542 2.492 8.201zM12.274 10.709c1.217 0.188 2.465 0.291 3.726 0.291s2.509-0.103 3.726-0.291c0.172 1.62 0.274 3.388 0.274 5.291h-8c0-1.903 0.102-3.671 0.274-5.291zM19.985 17c-0.028 1.525-0.118 2.961-0.26 4.291-1.216-0.188-2.463-0.291-3.725-0.291s-2.509 0.103-3.726 0.291c-0.173-1.626-0.237-3.057-0.26-4.291h7.971zM20.585 22.463c1.404 0.282 2.743 0.692 3.99 1.217-1.404 3.513-3.731 6.102-6.482 6.984 1.193-1.659 2.032-4.705 2.492-8.201zM21 16c0-1.836-0.102-3.696-0.294-5.47 1.48-0.292 2.896-0.72 4.215-1.271 0.684 2.029 1.079 4.315 1.079 6.741h-5zM20.585 9.537c-0.46-3.496-1.298-6.543-2.493-8.201 2.751 0.882 5.078 3.471 6.482 6.984-1.246 0.525-2.585 0.936-3.989 1.217zM19.611 9.714c-1.178 0.184-2.387 0.286-3.611 0.286s-2.433-0.102-3.611-0.286c0.695-5.335 2.211-8.714 3.611-8.714s2.916 3.379 3.611 8.714zM11.415 9.537c-1.404-0.282-2.743-0.692-3.99-1.217 1.404-3.513 3.731-6.102 6.482-6.984-1.193 1.659-2.032 4.705-2.492 8.201zM11.294 10.53c-0.192 1.774-0.294 3.634-0.294 5.47h-5c0-2.426 0.395-4.712 1.079-6.742 1.319 0.552 2.735 0.979 4.215 1.272zM11.014 17c0.029 1.508 0.122 3.017 0.28 4.471-1.48 0.292-2.896 0.72-4.215 1.271-0.589-1.748-0.954-3.687-1.045-5.742h4.98zM6.17 23.139c-0.88 0.422-1.697 0.907-2.456 1.44-1.525-2.176-2.477-4.772-2.663-7.579h3.984c0.094 2.196 0.491 4.27 1.135 6.139zM4.313 25.38c0.685-0.479 1.417-0.922 2.207-1.305 1.004 2.485 2.449 4.548 4.186 5.943-2.526-0.958-4.729-2.568-6.393-4.638zM21.294 30.017c1.738-1.394 3.182-3.458 4.186-5.943 0.79 0.384 1.522 0.826 2.207 1.305-1.664 2.071-3.867 3.681-6.393 4.638zM27 16c0-2.567-0.428-4.987-1.17-7.139 0.88-0.422 1.698-0.907 2.457-1.44 1.704 2.434 2.713 5.389 2.713 8.579h-4zM27.688 6.62c-0.685 0.479-1.417 0.921-2.207 1.305-1.004-2.485-2.449-4.549-4.186-5.943 2.525 0.958 4.728 2.568 6.393 4.638zM10.706 1.983c-1.738 1.394-3.182 3.458-4.186 5.943-0.791-0.384-1.522-0.827-2.207-1.306 1.664-2.070 3.867-3.68 6.393-4.637zM3.714 7.421c0.758 0.533 1.576 1.018 2.456 1.44-0.742 2.152-1.17 4.572-1.17 7.139h-4c0-3.19 1.009-6.145 2.714-8.579z"></path>
</symbol>
<symbol id="icon-cart" viewBox="0 0 29 29">
<title>cart</title>
<path d="M8.9 28.5C8.05556 28.5 7.33333 28.1433 6.73333 27.4298C6.13333 26.7173 5.83333 25.8685 5.83333 24.8833V10.4556L3.4 3.61111H0.5V0.5H5.2L7.4 6.72222H27.1C27.6111 6.72222 28 6.96852 28.2667 7.46111C28.5333 7.9537 28.5444 8.45926 28.3 8.97778L24.5 17.65C25.6333 17.8574 26.5836 18.4667 27.3507 19.4778C28.1169 20.4889 28.5 21.6815 28.5 23.0556C28.5 24.5593 28.0502 25.8426 27.1507 26.9056C26.2502 27.9685 25.1556 28.5 23.8667 28.5C22.5556 28.5 21.4502 27.9685 20.5507 26.9056C19.6502 25.8426 19.2 24.5593 19.2 23.0556C19.2 22.537 19.2556 22.0574 19.3667 21.6167C19.4778 21.1759 19.6333 20.7481 19.8333 20.3333L15.4667 19.8667L11.4667 26.8667C11.1778 27.3852 10.8053 27.787 10.3493 28.0722C9.89422 28.3574 9.41111 28.5 8.9 28.5ZM21.6333 17.4167L24.9333 9.83333L8.5 9.87222L10.1667 14.5C10.3444 15.0185 10.628 15.4525 11.0173 15.802C11.4058 16.1525 11.8556 16.3537 12.3667 16.4056L21.6333 17.4167ZM8.93333 25.35C8.97778 25.35 9.07778 25.2852 9.23333 25.1556L12.4667 19.5556C11.3778 19.4259 10.5222 19.121 9.9 18.6409C9.27778 18.1618 8.81111 17.663 8.5 17.1444V24.9222C8.5 25.0519 8.54444 25.1556 8.63333 25.2333C8.72222 25.3111 8.82222 25.35 8.93333 25.35ZM23.8333 25.3889C24.4111 25.3889 24.8889 25.1618 25.2667 24.7076C25.6444 24.2544 25.8333 23.7037 25.8333 23.0556C25.8333 22.3815 25.6444 21.8241 25.2667 21.3833C24.8889 20.9426 24.4111 20.7222 23.8333 20.7222C23.2778 20.7222 22.8058 20.9426 22.4173 21.3833C22.028 21.8241 21.8333 22.3815 21.8333 23.0556C21.8333 23.7037 22.028 24.2544 22.4173 24.7076C22.8058 25.1618 23.2778 25.3889 23.8333 25.3889ZM21.6333 17.4167L12.3667 16.4056L21.6333 17.4167Z" fill="#333333"/>
</symbol>
<symbol id="icon-bell" viewBox="0 0 26 29">
<title>bell</title>
<path d="M25.707 18.293L23 15.586V12C22.9969 9.52184 22.075 7.13285 20.4126 5.29498C18.7502 3.45712 16.4654 2.30093 14 2.05V0H12V2.05C9.53457 2.30093 7.24976 3.45712 5.58737 5.29498C3.92498 7.13285 3.0031 9.52184 3 12V15.586L0.293 18.293C0.105451 18.4805 5.66374e-05 18.7348 0 19V22C0 22.2652 0.105357 22.5196 0.292893 22.7071C0.48043 22.8946 0.734784 23 1 23H8V23.777C7.97825 25.0456 8.4254 26.2777 9.25578 27.237C10.0862 28.1964 11.2414 28.8156 12.5 28.976C13.1952 29.0449 13.8971 28.9676 14.5606 28.749C15.2241 28.5304 15.8345 28.1753 16.3525 27.7066C16.8706 27.2379 17.2848 26.666 17.5685 26.0277C17.8522 25.3893 17.9992 24.6986 18 24V23H25C25.2652 23 25.5196 22.8946 25.7071 22.7071C25.8946 22.5196 26 22.2652 26 22V19C25.9999 18.7348 25.8946 18.4805 25.707 18.293ZM16 24C16 24.7956 15.6839 25.5587 15.1213 26.1213C14.5587 26.6839 13.7956 27 13 27C12.2044 27 11.4413 26.6839 10.8787 26.1213C10.3161 25.5587 10 24.7956 10 24V23H16V24ZM24 21H2V19.414L4.707 16.707C4.89455 16.5195 4.99994 16.2652 5 16V12C5 9.87827 5.84285 7.84344 7.34315 6.34315C8.84344 4.84285 10.8783 4 13 4C15.1217 4 17.1566 4.84285 18.6569 6.34315C20.1571 7.84344 21 9.87827 21 12V16C21.0001 16.2652 21.1054 16.5195 21.293 16.707L24 19.414V21Z" fill="#333333"/>
</symbol>
<symbol id="icon-magnifying-glass" viewBox="0 0 20 20">
<title>magnifying-glass</title>
<path d="M17.545 15.467l-3.779-3.779c0.57-0.935 0.898-2.035 0.898-3.21 0-3.417-2.961-6.377-6.378-6.377s-6.186 2.769-6.186 6.186c0 3.416 2.961 6.377 6.377 6.377 1.137 0 2.2-0.309 3.115-0.844l3.799 3.801c0.372 0.371 0.975 0.371 1.346 0l0.943-0.943c0.371-0.371 0.236-0.84-0.135-1.211zM4.004 8.287c0-2.366 1.917-4.283 4.282-4.283s4.474 2.107 4.474 4.474c0 2.365-1.918 4.283-4.283 4.283s-4.473-2.109-4.473-4.474z"></path>
</symbol>
<symbol id="icon-arrowright" viewBox="0 0 40 26">
<title>arrow right</title>
<path fill-rule="evenodd" clip-rule="evenodd" d="M0 13C0 12.617 0.1505 12.2496 0.418392 11.9788C0.686284 11.7079 1.04962 11.5558 1.42848 11.5558H35.1206L26.1298 2.46859C25.8615 2.1974 25.7108 1.82959 25.7108 1.44607C25.7108 1.06255 25.8615 0.694733 26.1298 0.423543C26.398 0.152353 26.7618 9.03605e-09 27.1411 0C27.5205 -9.03605e-09 27.8843 0.152353 28.1525 0.423543L39.5803 11.9775C39.7134 12.1116 39.8189 12.271 39.8909 12.4465C39.9629 12.6219 40 12.81 40 13C40 13.19 39.9629 13.3781 39.8909 13.5535C39.8189 13.729 39.7134 13.8884 39.5803 14.0225L28.1525 25.5765C27.8843 25.8476 27.5205 26 27.1411 26C26.7618 26 26.398 25.8476 26.1298 25.5765C25.8615 25.3053 25.7108 24.9375 25.7108 24.5539C25.7108 24.1704 25.8615 23.8026 26.1298 23.5314L35.1206 14.4442H1.42848C1.04962 14.4442 0.686284 14.2921 0.418392 14.0212C0.1505 13.7504 0 13.383 0 13Z" fill="#616161"/>
</symbol>
<symbol id="icon-ellipse" viewBox="0 0 17 17">
<title>ellipse</title>
<circle cx="8.66136" cy="8.21263" r="7.9846" fill="#F5F5F5"/>
</symbol>
<symbol id="icon-greaterthan" viewBox="0 0 17 17">
<title>ellipse</title>
<circle cx="8.66136" cy="8.21263" r="7.9846" fill="#F5F5F5"/>
</symbol>
<symbol id="icon-blue-arrow" viewBox="0 0 81 71">
<title>Blue arrow-right</title>
<path d="M41.9839 1.48617C42.9332 0.534578 44.2207 0 45.5631 0C46.9055 0 48.193 0.534578 49.1423 1.48617L79.5178 31.9419C80.4668 32.8938 81 34.1847 81 35.5306C81 36.8766 80.4668 38.1675 79.5178 39.1193L49.1423 69.5751C48.1875 70.4997 46.9087 71.0114 45.5813 70.9998C44.2539 70.9882 42.9842 70.4544 42.0455 69.5133C41.1069 68.5722 40.5745 67.299 40.5629 65.9681C40.5514 64.6372 41.0617 63.355 41.9839 62.3977L63.7175 40.6066H5.06257C3.71989 40.6066 2.43221 40.0718 1.48279 39.1199C0.533377 38.168 0 36.8769 0 35.5306C0 34.1844 0.533377 32.8933 1.48279 31.9414C2.43221 30.9895 3.71989 30.4547 5.06257 30.4547H63.7175L41.9839 8.66358C41.0348 7.7117 40.5016 6.42084 40.5016 5.07488C40.5016 3.72891 41.0348 2.43806 41.9839 1.48617V1.48617Z" fill="#4693ED"/>
</symbol>
<symbol id="icon-mail"  viewBox="0 0 41 34">
<title>Mail</title>
<path d="M2.05 0H38.95C39.4937 0 40.0151 0.199007 40.3996 0.553243C40.784 0.907478 41 1.38792 41 1.88889V32.1111C41 32.6121 40.784 33.0925 40.3996 33.4468C40.0151 33.801 39.4937 34 38.95 34H2.05C1.50631 34 0.984881 33.801 0.600431 33.4468C0.215981 33.0925 0 32.6121 0 32.1111V1.88889C0 1.38792 0.215981 0.907478 0.600431 0.553243C0.984881 0.199007 1.50631 0 2.05 0ZM36.9 8.00511L20.6476 21.4162L4.1 7.96356V30.2222H36.9V8.00511ZM5.14755 3.77778L20.625 16.3616L35.8791 3.77778H5.14755Z" fill="#333333"/>
</symbol>
<symbol id="icon-location" viewBox="0 0 41 58">
<title>location</title>
<path d="M20.5 58L6.00423 41.0121C3.13728 37.6522 1.18487 33.3715 0.393892 28.7112C-0.397084 24.0509 0.00889892 19.2204 1.5605 14.8306C3.11211 10.4407 5.73964 6.68864 9.11084 4.04882C12.482 1.409 16.4455 0 20.5 0C24.5545 0 28.518 1.409 31.8892 4.04882C35.2604 6.68864 37.8879 10.4407 39.4395 14.8306C40.9911 19.2204 41.3971 24.0509 40.6061 28.7112C39.8151 33.3715 37.8627 37.6522 34.9958 41.0121L20.5 58ZM31.775 37.2376C34.0047 34.6243 35.5231 31.2948 36.1382 27.6702C36.7533 24.0456 36.4374 20.2886 35.2306 16.8744C34.0237 13.4602 31.9801 10.542 29.3581 8.48886C26.7361 6.43574 23.6534 5.33989 20.5 5.33989C17.3466 5.33989 14.2639 6.43574 11.6419 8.48886C9.0199 10.542 6.97626 13.4602 5.76942 16.8744C4.56257 20.2886 4.24672 24.0456 4.86181 27.6702C5.4769 31.2948 6.9953 34.6243 9.22501 37.2376L20.5 50.451L31.775 37.2376ZM20.5 29.3629C19.2918 29.3629 18.1331 28.8005 17.2787 27.7992C16.4244 26.798 15.9444 25.4401 15.9444 24.0242C15.9444 22.6083 16.4244 21.2503 17.2787 20.2491C18.1331 19.2479 19.2918 18.6854 20.5 18.6854C21.7082 18.6854 22.8669 19.2479 23.7213 20.2491C24.5756 21.2503 25.0556 22.6083 25.0556 24.0242C25.0556 25.4401 24.5756 26.798 23.7213 27.7992C22.8669 28.8005 21.7082 29.3629 20.5 29.3629Z" fill="#333333"/>
</symbol>
<symbol id="icon-arrow-down" viewBox="0 0 16 9">
<title>arrow down</title>
<path id="Vector" d="M0.352185 0.344159C0.577756 0.123794 0.883656 0 1.20262 0C1.52157 0 1.82747 0.123794 2.05305 0.344159L8.00726 6.16269L13.9615 0.344159C14.1883 0.130039 14.4922 0.0115592 14.8076 0.0142373C15.123 0.0169155 15.4247 0.140538 15.6477 0.358478C15.8707 0.576418 15.9972 0.871238 16 1.17944C16.0027 1.48764 15.8815 1.78457 15.6623 2.00626L8.85769 8.65584C8.63212 8.87621 8.32622 9 8.00726 9C7.6883 9 7.3824 8.87621 7.15683 8.65584L0.352185 2.00626C0.126681 1.78583 0 1.4869 0 1.17521C0 0.863519 0.126681 0.564591 0.352185 0.344159Z" fill="#2F2F2F"/>
</symbol>
<symbol id="icon-filter" viewBox="0 0 36 40">
<title>filter</title>
<path d="M11.0417 4.42208C10.456 4.42208 9.89428 4.65474 9.48014 5.06888C9.066 5.48303 8.83333 6.04472 8.83333 6.63041C8.83333 7.2161 9.066 7.7778 9.48014 8.19194C9.89428 8.60608 10.456 8.83874 11.0417 8.83874C11.6274 8.83874 12.1891 8.60608 12.6032 8.19194C13.0173 7.7778 13.25 7.2161 13.25 6.63041C13.25 6.04472 13.0173 5.48303 12.6032 5.06888C12.1891 4.65474 11.6274 4.42208 11.0417 4.42208ZM4.79208 4.42208C5.24833 3.12903 6.09442 2.00933 7.21374 1.21732C8.33306 0.425316 9.67048 0 11.0417 0C12.4128 0 13.7503 0.425316 14.8696 1.21732C15.9889 2.00933 16.835 3.12903 17.2912 4.42208H33.125C33.7107 4.42208 34.2724 4.65474 34.6865 5.06888C35.1007 5.48303 35.3333 6.04472 35.3333 6.63041C35.3333 7.2161 35.1007 7.7778 34.6865 8.19194C34.2724 8.60608 33.7107 8.83874 33.125 8.83874H17.2912C16.835 10.1318 15.9889 11.2515 14.8696 12.0435C13.7503 12.8355 12.4128 13.2608 11.0417 13.2608C9.67048 13.2608 8.33306 12.8355 7.21374 12.0435C6.09442 11.2515 5.24833 10.1318 4.79208 8.83874H2.20833C1.62265 8.83874 1.06095 8.60608 0.646806 8.19194C0.232663 7.7778 0 7.2161 0 6.63041C0 6.04472 0.232663 5.48303 0.646806 5.06888C1.06095 4.65474 1.62265 4.42208 2.20833 4.42208H4.79208ZM24.2917 17.6721C23.706 17.6721 23.1443 17.9047 22.7301 18.3189C22.316 18.733 22.0833 19.2947 22.0833 19.8804C22.0833 20.4661 22.316 21.0278 22.7301 21.4419C23.1443 21.8561 23.706 22.0887 24.2917 22.0887C24.8774 22.0887 25.4391 21.8561 25.8532 21.4419C26.2673 21.0278 26.5 20.4661 26.5 19.8804C26.5 19.2947 26.2673 18.733 25.8532 18.3189C25.4391 17.9047 24.8774 17.6721 24.2917 17.6721ZM18.0421 17.6721C18.4983 16.379 19.3444 15.2593 20.4637 14.4673C21.5831 13.6753 22.9205 13.25 24.2917 13.25C25.6628 13.25 27.0003 13.6753 28.1196 14.4673C29.2389 15.2593 30.085 16.379 30.5412 17.6721H33.125C33.7107 17.6721 34.2724 17.9047 34.6865 18.3189C35.1007 18.733 35.3333 19.2947 35.3333 19.8804C35.3333 20.4661 35.1007 21.0278 34.6865 21.4419C34.2724 21.8561 33.7107 22.0887 33.125 22.0887H30.5412C30.085 23.3818 29.2389 24.5015 28.1196 25.2935C27.0003 26.0855 25.6628 26.5108 24.2917 26.5108C22.9205 26.5108 21.5831 26.0855 20.4637 25.2935C19.3444 24.5015 18.4983 23.3818 18.0421 22.0887H2.20833C1.62265 22.0887 1.06095 21.8561 0.646806 21.4419C0.232663 21.0278 0 20.4661 0 19.8804C0 19.2947 0.232663 18.733 0.646806 18.3189C1.06095 17.9047 1.62265 17.6721 2.20833 17.6721H18.0421ZM11.0417 30.9221C10.456 30.9221 9.89428 31.1547 9.48014 31.5689C9.066 31.983 8.83333 32.5447 8.83333 33.1304C8.83333 33.7161 9.066 34.2778 9.48014 34.6919C9.89428 35.1061 10.456 35.3387 11.0417 35.3387C11.6274 35.3387 12.1891 35.1061 12.6032 34.6919C13.0173 34.2778 13.25 33.7161 13.25 33.1304C13.25 32.5447 13.0173 31.983 12.6032 31.5689C12.1891 31.1547 11.6274 30.9221 11.0417 30.9221ZM4.79208 30.9221C5.24833 29.629 6.09442 28.5093 7.21374 27.7173C8.33306 26.9253 9.67048 26.5 11.0417 26.5C12.4128 26.5 13.7503 26.9253 14.8696 27.7173C15.9889 28.5093 16.835 29.629 17.2912 30.9221H33.125C33.7107 30.9221 34.2724 31.1547 34.6865 31.5689C35.1007 31.983 35.3333 32.5447 35.3333 33.1304C35.3333 33.7161 35.1007 34.2778 34.6865 34.6919C34.2724 35.1061 33.7107 35.3387 33.125 35.3387H17.2912C16.835 36.6318 15.9889 37.7515 14.8696 38.5435C13.7503 39.3355 12.4128 39.7608 11.0417 39.7608C9.67048 39.7608 8.33306 39.3355 7.21374 38.5435C6.09442 37.7515 5.24833 36.6318 4.79208 35.3387H2.20833C1.62265 35.3387 1.06095 35.1061 0.646806 34.6919C0.232663 34.2778 0 33.7161 0 33.1304C0 32.5447 0.232663 31.983 0.646806 31.5689C1.06095 31.1547 1.62265 30.9221 2.20833 30.9221H4.79208Z" fill="black"/>
</symbol>
<symbol id="icon-arrow-up" viewBox="0 0 16 9">
<title>Arrow Up</title>
<path d="M0.352185 8.65584C0.577756 8.87621 0.883656 9 1.20262 9C1.52157 9 1.82747 8.87621 2.05305 8.65584L8.00726 2.83731L13.9615 8.65584C14.1883 8.86996 14.4922 8.98844 14.8076 8.98576C15.123 8.98308 15.4247 8.85946 15.6477 8.64152C15.8707 8.42358 15.9972 8.12876 16 7.82056C16.0027 7.51236 15.8815 7.21543 15.6623 6.99374L8.85769 0.344158C8.63212 0.123794 8.32622 0 8.00726 0C7.6883 0 7.3824 0.123794 7.15683 0.344158L0.352185 6.99374C0.126681 7.21417 0 7.5131 0 7.82479C0 8.13648 0.126681 8.43541 0.352185 8.65584Z" fill="#2F2F2F"/>
</symbol>
<symbol id="icon-diamond" viewBox="0 0 33 42">
<title>Diamond</title>
<path d="M32.7025 19.9475L17.5825 0.839591C17.4539 0.676461 17.2896 0.544532 17.102 0.453801C16.9145 0.36307 16.7086 0.315918 16.5 0.315918C16.2914 0.315918 16.0855 0.36307 15.8979 0.453801C15.7104 0.544532 15.5461 0.676461 15.4175 0.839591L0.297458 19.9475C0.104983 20.1842 0 20.4792 0 20.7835C0 21.0877 0.104983 21.3827 0.297458 21.6194L15.4175 40.7273C15.5461 40.8904 15.7104 41.0224 15.8979 41.1131C16.0855 41.2038 16.2914 41.251 16.5 41.251C16.7086 41.251 16.9145 41.2038 17.102 41.1131C17.2896 41.0224 17.4539 40.8904 17.5825 40.7273L32.7025 21.6194C32.895 21.3827 33 21.0877 33 20.7835C33 20.4792 32.895 20.1842 32.7025 19.9475ZM17.8746 25.4922V5.61656L29.4552 20.2546L17.8746 25.4922ZM15.1254 25.4922L3.54484 20.2546L15.1254 5.61656V25.4922ZM15.1254 28.4949V35.9503L5.95031 24.3491L15.1254 28.4949Z" fill="#333333"/>
</symbol>
<symbol id="icon-heart" viewBox="0 0 49 34">
<title>Heart</title>
<path d="M24.1161 5.95214L24.514 6.47514L24.9119 5.95214C27.0609 3.12763 30.8802 1.29517 35.2617 1.29517C42.1664 1.29517 47.6589 6.00547 47.6589 11.5823C47.6589 14.0997 46.2744 16.6813 44.0884 19.1745C41.9107 21.6583 38.993 23.9908 36.0541 26.002C33.1184 28.0109 30.1799 29.6869 27.9736 30.8612C26.871 31.4481 25.9525 31.909 25.3104 32.2228C24.9894 32.3797 24.7375 32.4999 24.5663 32.5806C24.5483 32.5891 24.5311 32.5972 24.5148 32.6048C24.4985 32.5971 24.4812 32.5889 24.463 32.5802C24.2918 32.4989 24.0399 32.3778 23.7189 32.2198C23.0767 31.9036 22.1582 31.4395 21.0555 30.8491C18.8491 29.6678 15.9103 27.9833 12.9745 25.9687C10.0353 23.9517 7.11733 21.6162 4.93933 19.1363C2.75267 16.6464 1.36914 14.0763 1.36914 11.5823C1.36914 6.00547 6.86164 1.29517 13.7663 1.29517C18.1478 1.29517 21.9671 3.12763 24.1161 5.95214Z" stroke="#292929"/>
</symbol>
<symbol id="icon-google-image" viewBox="0 0 192 192">
<title>google image search bar icon</title>
<circle id="Dot" fill="#4285F4" cx="96" cy="104.15" r="28"/>
	<path id="Red" fill="#EA4335" d="M160,72v40.15V136c0,1.69-0.34,3.29-0.82,4.82v0v0c-1.57,4.92-5.43,8.78-10.35,10.35h0v0
		c-1.53,0.49-3.13,0.82-4.82,0.82H66l16,16h50h12c4.42,0,8.63-0.9,12.46-2.51c3.83-1.62,7.28-3.96,10.17-6.86
		c1.45-1.45,2.76-3.03,3.91-4.74c2.3-3.4,3.96-7.28,4.81-11.44c0.43-2.08,0.65-4.24,0.65-6.45v-12V96.15V84l-6-19l-10.82,2.18
		C159.66,68.71,160,70.31,160,72z"/>
	<path id="Blue" fill="#4285F4" d="M32,72c0-1.69,0.34-3.29,0.82-4.82c1.57-4.92,5.43-8.78,10.35-10.35C44.71,56.34,46.31,56,48,56
		h96c1.69,0,3.29,0.34,4.82,0.82c0,0,0,0,0,0L149,45l-17-5l-16-16h-13.44H96h-6.56H76L60,40H48c-17.67,0-32,14.33-32,32v12v20l16,16
		V72z"/>
	<path id="Green" fill="#34A853" d="M144,40h-12l16.83,16.83c1.23,0.39,2.39,0.93,3.47,1.59c2.16,1.32,3.97,3.13,5.29,5.29
		c0.66,1.08,1.2,2.24,1.59,3.47v0L176,84V72C176,54.33,161.67,40,144,40z"/>
	<path id="Yellow" fill="#FBBC04" d="M48,168h39.89l-16-16H48c-8.82,0-16-7.18-16-16v-23.89l-16-16V136C16,153.67,30.33,168,48,168z"/>
</symbol>    
</defs>
</svg>
